<?xml version="1.0" encoding="utf-8"?>
<!-- Generator: Adobe Illustrator 19.0.0, SVG Export Plug-In . SVG Version: 6.00 Build 0)  -->
<svg version="1.1" id="icons__x28_128_x__x_128_x29_"
	 xmlns="http://www.w3.org/2000/svg" xmlns:xlink="http://www.w3.org/1999/xlink" x="0px" y="0px" width="136px" height="136px"
	 viewBox="0 0 136 136" style="enable-background:new 0 0 136 136;" xml:space="preserve">
<g>
	<g>
		<path style="fill:#453F3C;" d="M77,108v15c0,5-4,9-9,9s-9-4-9-9v-15H77z"/>
		<path style="fill:#C9ADA1;" d="M73,112v11c0,2.7-2.3,5-5,5h0c-2.7,0-5-2.3-5-5v-11H73z"/>
		<path style="mix-blend-mode:overlay;opacity:0.24;fill:#FFFFFF;" d="M71,116v7c0,1.6-1.4,3-3,3s-3-1.4-3-3v-7h-2v7c0,2.8,2.3,5,5,5s5-2.3,5-5v-7H71z"/>
		<rect x="63" y="112" style="opacity:0.24;" width="10" height="4"/>
		<g>
			<defs>
				<path id="SVGID_1_" d="M73,112v11c0,2.7-2.3,5-5,5h0c-2.7,0-5-2.3-5-5v-11H73z"/>
			</defs>
			<clipPath id="SVGID_2_">
				<use xlink:href="#SVGID_1_"  style="overflow:visible;"/>
			</clipPath>
			<g style="clip-path:url(#SVGID_2_);">
				<path style="fill:none;stroke:#453F3C;stroke-linecap:round;stroke-miterlimit:10;" d="M74,114c0,0-8.9,3.1,0,12"/>
				<path style="fill:none;stroke:#453F3C;stroke-linecap:round;stroke-miterlimit:10;" d="M71,111c0,0-6.9,8.1-2,13"/>
				<path style="fill:none;stroke:#453F3C;stroke-linecap:round;stroke-miterlimit:10;" d="M64,121c0,0,12.9,15-7,15"/>
				<path style="fill:none;stroke:#453F3C;stroke-linecap:round;stroke-miterlimit:10;" d="M62,118c0,0,4-0.5,4-4"/>
			</g>
		</g>
	</g>
	<g>
		<path style="fill:#453F3C;" d="M46,112c-6.6,0-12-5.4-12-12V38C34,19.3,49.3,4,68,4s34,15.3,34,34v62c0,6.6-5.4,12-12,12H46z"/>
		<path style="fill:#ED7161;" d="M90,108H46c-4.4,0-8-3.6-8-8V38C38,21.5,51.5,8,68,8h0c16.5,0,30,13.5,30,30v62
			C98,104.4,94.4,108,90,108z"/>
		<g>
			<path style="opacity:0.24;" d="M90,106H46c-3.3,0-6-2.7-6-6h-2c0,4.4,3.6,8,8,8h44c4.4,0,8-3.6,8-8h-2C96,103.3,93.3,106,90,106z
				"/>
			<path style="mix-blend-mode:overlay;opacity:0.24;fill:#FFFFFF;" d="M40,38c0-15.4,12.6-28,28-28s28,12.6,28,28v62h2V38C98,21.5,84.5,8,68,8
				S38,21.5,38,38v62h2V38z"/>
		</g>
		<g>
			<defs>
				<path id="SVGID_3_" d="M96,100c0,3.3-2.7,6-6,6H46c-3.3,0-6-2.7-6-6V38c0-15.4,12.6-28,28-28s28,12.6,28,28V100z"/>
			</defs>
			<clipPath id="SVGID_4_">
				<use xlink:href="#SVGID_3_"  style="overflow:visible;"/>
			</clipPath>
			<g style="mix-blend-mode:overlay;clip-path:url(#SVGID_4_);">
				<rect x="77" y="8" style="opacity:0.24;fill:#FFFFFF;" width="2" height="100"/>
				<rect x="81" y="8" style="opacity:0.24;fill:#FFFFFF;" width="1" height="100"/>
			</g>
		</g>
		<g>
			<g>
				<path style="fill:#453F3C;" d="M50,92c-2.2,0-4-1.8-4-4V44c0-2.2,1.8-4,4-4s4,1.8,4,4v44C54,90.2,52.2,92,50,92z"/>
				<path style="fill:#B8574C;" d="M50,90L50,90c-1.1,0-2-0.9-2-2V44c0-1.1,0.9-2,2-2h0c1.1,0,2,0.9,2,2v44C52,89.1,51.1,90,50,90z"
					/>
				<path style="opacity:0.24;" d="M50,42c-1.1,0-2,0.9-2,2v44c0,1.1,0.9,2,2,2s2-0.9,2-2V44C52,42.9,51.1,42,50,42z M51,88
					c0,0.5-0.5,1-1,1s-1-0.5-1-1V44c0-0.6,0.5-1,1-1s1,0.4,1,1V88z"/>
			</g>
			<g>
				<path style="fill:#453F3C;" d="M62,92c-2.2,0-4-1.8-4-4V44c0-2.2,1.8-4,4-4s4,1.8,4,4v44C66,90.2,64.2,92,62,92z"/>
				<path style="fill:#B8574C;" d="M62,90L62,90c-1.1,0-2-0.9-2-2V44c0-1.1,0.9-2,2-2h0c1.1,0,2,0.9,2,2v44C64,89.1,63.1,90,62,90z"
					/>
				<path style="opacity:0.24;" d="M62,42c-1.1,0-2,0.9-2,2v44c0,1.1,0.9,2,2,2s2-0.9,2-2V44C64,42.9,63.1,42,62,42z M63,88
					c0,0.5-0.5,1-1,1s-1-0.5-1-1V44c0-0.6,0.5-1,1-1s1,0.4,1,1V88z"/>
			</g>
			<g>
				<path style="fill:#453F3C;" d="M74,92c-2.2,0-4-1.8-4-4V44c0-2.2,1.8-4,4-4s4,1.8,4,4v44C78,90.2,76.2,92,74,92z"/>
				<path style="fill:#B8574C;" d="M74,90L74,90c-1.1,0-2-0.9-2-2V44c0-1.1,0.9-2,2-2l0,0c1.1,0,2,0.9,2,2v44C76,89.1,75.1,90,74,90
					z"/>
				<path style="opacity:0.24;" d="M74,42c-1.1,0-2,0.9-2,2v44c0,1.1,0.9,2,2,2s2-0.9,2-2V44C76,42.9,75.1,42,74,42z M75,88
					c0,0.5-0.5,1-1,1s-1-0.5-1-1V44c0-0.6,0.5-1,1-1s1,0.4,1,1V88z"/>
			</g>
			<g>
				<path style="fill:#453F3C;" d="M86,92c-2.2,0-4-1.8-4-4V44c0-2.2,1.8-4,4-4s4,1.8,4,4v44C90,90.2,88.2,92,86,92z"/>
				<path style="fill:#B8574C;" d="M86,90L86,90c-1.1,0-2-0.9-2-2V44c0-1.1,0.9-2,2-2l0,0c1.1,0,2,0.9,2,2v44C88,89.1,87.1,90,86,90
					z"/>
				<path style="opacity:0.24;" d="M86,42c-1.1,0-2,0.9-2,2v44c0,1.1,0.9,2,2,2s2-0.9,2-2V44C88,42.9,87.1,42,86,42z M87,88
					c0,0.5-0.5,1-1,1s-1-0.5-1-1V44c0-0.6,0.5-1,1-1s1,0.4,1,1V88z"/>
			</g>
		</g>
	</g>
</g>
</svg>
