<svg xmlns="http://www.w3.org/2000/svg" viewBox="0 0 90 90"><defs><style>.cls-1{fill:#ffc60b;}.cls-2{fill:#e8a50a;}.cls-3{fill:#3f97ff;}.cls-4{opacity:0.1;}.cls-5{fill:#934921;}.cls-6{fill:#e64c3c;}</style></defs><title>ice-cream</title><g id="ice-cream"><g id="ice-cream-2" data-name="ice-cream"><path class="cls-1" d="M42.38,83.22a2.82,2.82,0,0,0,5.24,0L60.39,45.34H29.61Z"/><polygon class="cls-2" points="34.41 55.18 40.06 55.18 37.23 49.27 34.41 55.18"/><polygon class="cls-2" points="42.17 55.18 47.83 55.18 45 49.27 42.17 55.18"/><polygon class="cls-2" points="49.94 55.18 55.59 55.18 52.77 49.27 49.94 55.18"/><polygon class="cls-2" points="46.64 63.78 52.29 63.78 49.47 57.86 46.64 63.78"/><polygon class="cls-2" points="42.17 71.52 47.83 71.52 45 65.61 42.17 71.52"/><polygon class="cls-2" points="37.71 63.78 43.36 63.78 40.53 57.86 37.71 63.78"/><ellipse class="cls-3" cx="44.95" cy="19.48" rx="15.7" ry="14.48"/><path class="cls-4" d="M60.65,19.39v0h0v0h0v0h0v0h0v0h0v0h0v-.29h0v0h0v-.05h0v-.09h0A14.38,14.38,0,0,0,52.92,7a13.85,13.85,0,0,1,4.26,9.92A13.59,13.59,0,0,1,57,18.85a16.4,16.4,0,0,1,3.59,1.26c0-.21,0-.42,0-.63v0h0v0Z"/><ellipse class="cls-5" cx="53.3" cy="32.91" rx="15.7" ry="14.48"/><path class="cls-4" d="M69,32.82v0h0v0h0v0h0v0h0v-.24h0v-.08h0a14.31,14.31,0,0,0-7.28-11.6,13.6,13.6,0,0,1,2.44,7.75c0,8-7,14.48-15.7,14.48h-.24a15.56,15.56,0,0,1-3.08,2.37,16.53,16.53,0,0,0,7.23,2.09h.94C62,47.39,69,40.91,69,32.91v0h0v0Z"/><ellipse class="cls-6" cx="36.7" cy="32.91" rx="15.7" ry="14.48"/><path class="cls-4" d="M45.11,20.83a13.61,13.61,0,0,1,2.44,7.75c0,8-7,14.48-15.7,14.48a16.6,16.6,0,0,1-8.26-2.17,15.48,15.48,0,0,0,6.52,5.18,16.69,16.69,0,0,0,5.66,1.31l.93,0,.93,0,.59,0a16.53,16.53,0,0,0,6.19-1.8l.08,0,.27-.14L45,45.2h0a15.6,15.6,0,0,0,3.05-2.3,13.86,13.86,0,0,0,4.34-10q0-.55,0-1.08A14.36,14.36,0,0,0,45.11,20.83Z"/></g></g></svg>